<mxfile host="app.diagrams.net" modified="2023-01-05T22:12:56.997Z" agent="5.0 (Windows NT 10.0; Win64; x64) AppleWebKit/537.36 (KHTML, like Gecko) Chrome/108.0.0.0 Safari/537.36 Edg/108.0.1462.54" version="20.8.1" etag="IvubHkdNjITD2KfGHraf" type="github">
  <diagram id="2EVpSgwMcO4sdyHLWQny" name="PÃ¡gina-1">
    <mxGraphModel dx="1632" dy="889" grid="1" gridSize="10" guides="1" tooltips="1" connect="1" arrows="1" fold="1" page="1" pageScale="1" pageWidth="827" pageHeight="1169" math="0" shadow="0">
      <root>
        <mxCell id="0" />
        <mxCell id="1" parent="0" />
        <mxCell id="CVu0sirSZvX8CHzpGuW4-17" style="edgeStyle=orthogonalEdgeStyle;rounded=0;orthogonalLoop=1;jettySize=auto;html=1;" edge="1" parent="1" source="CVu0sirSZvX8CHzpGuW4-1" target="CVu0sirSZvX8CHzpGuW4-2">
          <mxGeometry relative="1" as="geometry" />
        </mxCell>
        <mxCell id="CVu0sirSZvX8CHzpGuW4-1" value="Amazon Cognito" style="sketch=0;outlineConnect=0;fontColor=#232F3E;gradientColor=none;strokeColor=#ffffff;fillColor=#232F3E;dashed=0;verticalLabelPosition=middle;verticalAlign=bottom;align=center;html=1;whiteSpace=wrap;fontSize=10;fontStyle=1;spacing=3;shape=mxgraph.aws4.productIcon;prIcon=mxgraph.aws4.cognito;" vertex="1" parent="1">
          <mxGeometry x="390" y="485" width="80" height="110" as="geometry" />
        </mxCell>
        <mxCell id="CVu0sirSZvX8CHzpGuW4-71" style="edgeStyle=orthogonalEdgeStyle;rounded=0;orthogonalLoop=1;jettySize=auto;html=1;" edge="1" parent="1" source="CVu0sirSZvX8CHzpGuW4-2" target="CVu0sirSZvX8CHzpGuW4-61">
          <mxGeometry relative="1" as="geometry" />
        </mxCell>
        <mxCell id="CVu0sirSZvX8CHzpGuW4-74" style="edgeStyle=orthogonalEdgeStyle;rounded=0;orthogonalLoop=1;jettySize=auto;html=1;entryX=0.5;entryY=1;entryDx=0;entryDy=0;" edge="1" parent="1" source="CVu0sirSZvX8CHzpGuW4-2" target="CVu0sirSZvX8CHzpGuW4-27">
          <mxGeometry relative="1" as="geometry" />
        </mxCell>
        <mxCell id="CVu0sirSZvX8CHzpGuW4-2" value="Amazon API Gateway" style="sketch=0;outlineConnect=0;fontColor=#232F3E;gradientColor=none;strokeColor=#ffffff;fillColor=#232F3E;dashed=0;verticalLabelPosition=middle;verticalAlign=bottom;align=center;html=1;whiteSpace=wrap;fontSize=10;fontStyle=1;spacing=3;shape=mxgraph.aws4.productIcon;prIcon=mxgraph.aws4.api_gateway;" vertex="1" parent="1">
          <mxGeometry x="640" y="485" width="80" height="110" as="geometry" />
        </mxCell>
        <mxCell id="CVu0sirSZvX8CHzpGuW4-76" style="edgeStyle=orthogonalEdgeStyle;rounded=0;orthogonalLoop=1;jettySize=auto;html=1;" edge="1" parent="1" source="CVu0sirSZvX8CHzpGuW4-5" target="CVu0sirSZvX8CHzpGuW4-12">
          <mxGeometry relative="1" as="geometry" />
        </mxCell>
        <mxCell id="CVu0sirSZvX8CHzpGuW4-5" value="AWS Lambda" style="sketch=0;outlineConnect=0;fontColor=#232F3E;gradientColor=none;strokeColor=#ffffff;fillColor=#232F3E;dashed=0;verticalLabelPosition=middle;verticalAlign=bottom;align=center;html=1;whiteSpace=wrap;fontSize=10;fontStyle=1;spacing=3;shape=mxgraph.aws4.productIcon;prIcon=mxgraph.aws4.lambda;" vertex="1" parent="1">
          <mxGeometry x="777.5" y="265" width="80" height="100" as="geometry" />
        </mxCell>
        <mxCell id="CVu0sirSZvX8CHzpGuW4-10" value="Amazon SQS" style="sketch=0;outlineConnect=0;fontColor=#232F3E;gradientColor=none;strokeColor=#ffffff;fillColor=#232F3E;dashed=0;verticalLabelPosition=middle;verticalAlign=bottom;align=center;html=1;whiteSpace=wrap;fontSize=10;fontStyle=1;spacing=3;shape=mxgraph.aws4.productIcon;prIcon=mxgraph.aws4.sqs;" vertex="1" parent="1">
          <mxGeometry x="780" y="883" width="80" height="100" as="geometry" />
        </mxCell>
        <mxCell id="CVu0sirSZvX8CHzpGuW4-11" value="Amazon RDS" style="sketch=0;outlineConnect=0;fontColor=#232F3E;gradientColor=none;strokeColor=#ffffff;fillColor=#232F3E;dashed=0;verticalLabelPosition=middle;verticalAlign=bottom;align=center;html=1;whiteSpace=wrap;fontSize=10;fontStyle=1;spacing=3;shape=mxgraph.aws4.productIcon;prIcon=mxgraph.aws4.rds;" vertex="1" parent="1">
          <mxGeometry x="910" y="478" width="80" height="100" as="geometry" />
        </mxCell>
        <mxCell id="CVu0sirSZvX8CHzpGuW4-12" value="" style="outlineConnect=0;dashed=0;verticalLabelPosition=bottom;verticalAlign=top;align=center;html=1;shape=mxgraph.aws3.kms;fillColor=#759C3E;gradientColor=none;" vertex="1" parent="1">
          <mxGeometry x="1150" y="485" width="76.5" height="93" as="geometry" />
        </mxCell>
        <mxCell id="CVu0sirSZvX8CHzpGuW4-27" value="backend-mock" style="text;html=1;strokeColor=none;fillColor=none;align=center;verticalAlign=middle;whiteSpace=wrap;rounded=0;" vertex="1" parent="1">
          <mxGeometry x="770" y="355" width="95" height="30" as="geometry" />
        </mxCell>
        <mxCell id="CVu0sirSZvX8CHzpGuW4-36" value="AWS KMS" style="text;html=1;strokeColor=none;fillColor=none;align=center;verticalAlign=middle;whiteSpace=wrap;rounded=0;" vertex="1" parent="1">
          <mxGeometry x="1158.25" y="516.5" width="60" height="30" as="geometry" />
        </mxCell>
        <mxCell id="CVu0sirSZvX8CHzpGuW4-59" value="jobs-quickbooks&lt;br&gt;" style="text;html=1;align=center;verticalAlign=middle;resizable=0;points=[];autosize=1;strokeColor=none;fillColor=none;" vertex="1" parent="1">
          <mxGeometry x="765" y="983" width="110" height="30" as="geometry" />
        </mxCell>
        <mxCell id="CVu0sirSZvX8CHzpGuW4-75" style="edgeStyle=orthogonalEdgeStyle;rounded=0;orthogonalLoop=1;jettySize=auto;html=1;entryX=0.5;entryY=1;entryDx=0;entryDy=0;entryPerimeter=0;" edge="1" parent="1" source="CVu0sirSZvX8CHzpGuW4-61" target="CVu0sirSZvX8CHzpGuW4-12">
          <mxGeometry relative="1" as="geometry" />
        </mxCell>
        <mxCell id="CVu0sirSZvX8CHzpGuW4-61" value="AWS Lambda" style="sketch=0;outlineConnect=0;fontColor=#232F3E;gradientColor=none;strokeColor=#ffffff;fillColor=#232F3E;dashed=0;verticalLabelPosition=middle;verticalAlign=bottom;align=center;html=1;whiteSpace=wrap;fontSize=10;fontStyle=1;spacing=3;shape=mxgraph.aws4.productIcon;prIcon=mxgraph.aws4.lambda;" vertex="1" parent="1">
          <mxGeometry x="777.5" y="670" width="80" height="100" as="geometry" />
        </mxCell>
        <mxCell id="CVu0sirSZvX8CHzpGuW4-81" style="edgeStyle=orthogonalEdgeStyle;rounded=0;orthogonalLoop=1;jettySize=auto;html=1;" edge="1" parent="1" source="CVu0sirSZvX8CHzpGuW4-62" target="CVu0sirSZvX8CHzpGuW4-10">
          <mxGeometry relative="1" as="geometry" />
        </mxCell>
        <mxCell id="CVu0sirSZvX8CHzpGuW4-62" value="workers-quickbooks&lt;br&gt;" style="text;html=1;align=center;verticalAlign=middle;resizable=0;points=[];autosize=1;strokeColor=none;fillColor=none;" vertex="1" parent="1">
          <mxGeometry x="755" y="765" width="130" height="30" as="geometry" />
        </mxCell>
        <mxCell id="CVu0sirSZvX8CHzpGuW4-77" value="" style="endArrow=classic;html=1;rounded=0;" edge="1" parent="1" source="CVu0sirSZvX8CHzpGuW4-61">
          <mxGeometry width="50" height="50" relative="1" as="geometry">
            <mxPoint x="860" y="596.5" as="sourcePoint" />
            <mxPoint x="910" y="546.5" as="targetPoint" />
          </mxGeometry>
        </mxCell>
        <mxCell id="CVu0sirSZvX8CHzpGuW4-79" value="dx-neutech-rds-dev" style="text;html=1;strokeColor=none;fillColor=none;align=center;verticalAlign=middle;whiteSpace=wrap;rounded=0;" vertex="1" parent="1">
          <mxGeometry x="900" y="578" width="120" height="30" as="geometry" />
        </mxCell>
        <mxCell id="CVu0sirSZvX8CHzpGuW4-80" value="" style="endArrow=classic;html=1;rounded=0;" edge="1" parent="1" target="CVu0sirSZvX8CHzpGuW4-11">
          <mxGeometry width="50" height="50" relative="1" as="geometry">
            <mxPoint x="860" y="335" as="sourcePoint" />
            <mxPoint x="1040" y="485" as="targetPoint" />
          </mxGeometry>
        </mxCell>
        <mxCell id="CVu0sirSZvX8CHzpGuW4-82" style="edgeStyle=orthogonalEdgeStyle;rounded=0;orthogonalLoop=1;jettySize=auto;html=1;" edge="1" parent="1" source="CVu0sirSZvX8CHzpGuW4-83" target="CVu0sirSZvX8CHzpGuW4-84">
          <mxGeometry relative="1" as="geometry" />
        </mxCell>
        <mxCell id="CVu0sirSZvX8CHzpGuW4-83" value="Amazon S3" style="sketch=0;outlineConnect=0;fontColor=#232F3E;gradientColor=none;strokeColor=#ffffff;fillColor=#232F3E;dashed=0;verticalLabelPosition=middle;verticalAlign=bottom;align=center;html=1;whiteSpace=wrap;fontSize=10;fontStyle=1;spacing=3;shape=mxgraph.aws4.productIcon;prIcon=mxgraph.aws4.s3;" vertex="1" parent="1">
          <mxGeometry x="370" y="265" width="80" height="100" as="geometry" />
        </mxCell>
        <mxCell id="CVu0sirSZvX8CHzpGuW4-84" value="Amazon Cloudfront" style="sketch=0;outlineConnect=0;fontColor=#232F3E;gradientColor=none;strokeColor=#ffffff;fillColor=#232F3E;dashed=0;verticalLabelPosition=middle;verticalAlign=bottom;align=center;html=1;whiteSpace=wrap;fontSize=10;fontStyle=1;spacing=3;shape=mxgraph.aws4.productIcon;prIcon=mxgraph.aws4.cloudfront;" vertex="1" parent="1">
          <mxGeometry x="630" y="260" width="80" height="110" as="geometry" />
        </mxCell>
        <mxCell id="CVu0sirSZvX8CHzpGuW4-86" value="&lt;h1 style=&quot;font-size: 2.8rem; margin: 0px; font-family: &amp;quot;Amazon Ember&amp;quot;, &amp;quot;Helvetica Neue&amp;quot;, Roboto, Arial, sans-serif; font-weight: 400; color: rgb(22, 25, 31); text-decoration: none; padding: 0.5rem 0px; line-height: 4rem; font-style: normal; font-variant-ligatures: normal; font-variant-caps: normal; letter-spacing: normal; orphans: 2; text-align: start; text-indent: 0px; text-transform: none; widows: 2; word-spacing: 0px; -webkit-text-stroke-width: 0px; background-color: rgb(242, 243, 243);&quot;&gt;&lt;br&gt;&lt;/h1&gt;" style="text;whiteSpace=wrap;html=1;" vertex="1" parent="1">
          <mxGeometry x="280" y="450" width="400" height="100" as="geometry" />
        </mxCell>
        <mxCell id="CVu0sirSZvX8CHzpGuW4-90" value="neutech-s3-bucket" style="text;html=1;strokeColor=none;fillColor=none;align=center;verticalAlign=middle;whiteSpace=wrap;rounded=0;" vertex="1" parent="1">
          <mxGeometry x="355" y="370" width="110" height="30" as="geometry" />
        </mxCell>
        <mxCell id="CVu0sirSZvX8CHzpGuW4-91" style="edgeStyle=orthogonalEdgeStyle;rounded=0;orthogonalLoop=1;jettySize=auto;html=1;exitX=0.5;exitY=1;exitDx=0;exitDy=0;" edge="1" parent="1" source="CVu0sirSZvX8CHzpGuW4-86" target="CVu0sirSZvX8CHzpGuW4-86">
          <mxGeometry relative="1" as="geometry" />
        </mxCell>
        <mxCell id="CVu0sirSZvX8CHzpGuW4-92" value="dx-neutech-user-pool" style="text;html=1;strokeColor=none;fillColor=none;align=center;verticalAlign=middle;whiteSpace=wrap;rounded=0;" vertex="1" parent="1">
          <mxGeometry x="385" y="600" width="90" height="30" as="geometry" />
        </mxCell>
        <mxCell id="CVu0sirSZvX8CHzpGuW4-94" value="dx-neutech-api (dev)" style="text;html=1;strokeColor=none;fillColor=none;align=center;verticalAlign=middle;whiteSpace=wrap;rounded=0;" vertex="1" parent="1">
          <mxGeometry x="635" y="600" width="90" height="30" as="geometry" />
        </mxCell>
      </root>
    </mxGraphModel>
  </diagram>
</mxfile>
